# xmcd
#
# Track frame offsets:
#	150
#	17428
#	36420
#	64342
#	77768
#	100281
#	116967
#	134592
#	154711
#	168280
#	188116
#	212194
#	240364
#	267501
#	296916
#	322020
#
# Disc length: 4613 seconds
#
# Revision: 1
# Processed by: cddbd v1.5.2PL0 Copyright (c) Steve Scherf et al.
# Submitted via: EZCDAudioConverter 1.0.2.1
#
DISCID=f0120310
DTITLE=Thanh Ha, Bang Kieu - Chia khoa tinh yeu
DYEAR=1900
DGENRE=
TTITLE0=Thanh Ha - Chia khoa tinh yeu
TTITLE1=Thanh Ha - Hoai cam
TTITLE2=Thanh Ha - Chieu nay khong co em
TTITLE3=Thanh Ha - Sai Gon dep lam
TTITLE4=Thanh Ha - Mong manh
TTITLE5=Thanh Ha - Dem do thi
TTITLE6=Thanh Ha - Tinh van mai cach xa
TTITLE7=Thanh Ha - Soi buoc em
TTITLE8=Thanh Ha - Tinh la soi to
TTITLE9=Thanh Ha - Tinh me cho con
TTITLE10=Bang Kieu - Xin Con Goi Ten Nhau
TTITLE11=Bang Kieu - Ve Di Em
TTITLE12=Bang Kieu - Thu Hat Cho Nguoi
TTITLE13=Bang Kieu - Tha Nhu Giot Mua
TTITLE14=Bang Kieu - Roi Mai Toi Dua Em
TTITLE15=Bang Kieu - Le Da
EXTD=
EXTT0=
EXTT1=
EXTT2=
EXTT3=
EXTT4=
EXTT5=
EXTT6=
EXTT7=
EXTT8=
EXTT9=
EXTT10=
EXTT11=
EXTT12=
EXTT13=
EXTT14=
EXTT15=
PLAYORDER=
